<svg id="Capa_1" enable-background="new 0 0 512 512" height="512" viewBox="0 0 512 512" width="512" xmlns="http://www.w3.org/2000/svg"><g><g><g><g><g><g><circle cx="256" cy="256" fill="#2fddd0" r="256"/></g></g></g></g></g><path d="m512 256c0-3.986-.091-7.95-.272-11.891l-145.037-145.038-6.358 11.081-72.406-72.406-253.888 261.673 101.643 101.643-3.41 3.227 107.185 107.185c5.469.349 10.985.526 16.543.526 141.385 0 256-114.615 256-256z" fill="#11bfae"/><g><path d="m296.17 438.022h-79.671c-67.396 0-122.228-54.831-122.228-122.227v-103.428h324.126v103.428c0 67.396-54.831 122.227-122.227 122.227zm-163.899-187.655v65.428c0 46.443 37.784 84.227 84.228 84.227h79.671c46.443 0 84.228-37.784 84.228-84.227v-65.428z" fill="#636978"/></g><g><path d="m256 212.367v38h124.397v65.428c0 46.443-37.784 84.227-84.228 84.227h-40.169v38h40.17c67.396 0 122.228-54.831 122.228-122.227v-103.428z" fill="#414952"/></g><g><path d="m256 51.488c-92.635 0-168.283 90.32-172.964 181.791h345.927c-4.68-91.471-80.328-181.791-172.963-181.791z" fill="#fa5d0f"/></g><g><path d="m256 51.488c-.005 0-.009 0 0 0v181.792h172.964c-4.681-91.472-80.329-181.792-172.964-181.792z" fill="#db3e0e"/></g><g><path d="m82.474 233.28-48.435 66.139h443.922l-49.56-66.139z" fill="#db3e0e"/></g><g><path d="m428.401 233.28h-172.401v66.139h221.961z" fill="#c10000"/></g><g><path d="m224.072 37.747h63.855v126.407h-63.855z" fill="#db3e0e"/></g><g><path d="m256 37.747h31.928v126.407h-31.928z" fill="#c10000"/></g><g><path d="m277.056 201.144-21.056 15.186-21.056-15.186c-9.995-7.208-15.917-18.78-15.917-31.103v-37.064l36.973-20.85 36.973 20.851v37.064c0 12.322-5.922 23.894-15.917 31.102z" fill="#ffce00"/></g><g><path d="m256 216.33 21.056-15.186c9.995-7.208 15.917-18.78 15.917-31.103v-37.064l-36.973-20.85z" fill="#fdba12"/></g></g></svg>