<svg height="512" viewBox="0 0 59 58" width="512" xmlns="http://www.w3.org/2000/svg"><g id="010---Fire-Extinguisher" fill="none"><path id="Shape" d="m22 21v31l-10 2-10-2v-31c-.01025668-2.1653541.6925822-4.2738707 2-6l8-2 8 2c1.2982213 1.7309617 2 3.8362979 2 6z" fill="#e64c3c"/><path id="Shape" d="m22 52v4c0 1.1045695-.8954305 2-2 2h-16c-1.1045695 0-2-.8954305-2-2v-4z" fill="#c03a2b"/><path id="Shape" d="m3 9c-.42337431-.00243819-.79933099-.27122961-.93859472-.67105128-.13926372-.39982166-.01164974-.84401411.31859472-1.10894872l5-4c.43184569-.32441833 1.04326864-.24728493 1.38101315.17422023.33774452.42150515.2797404 1.03503845-.13101315 1.38577977-5.38 4.3-5.14 4.22-5.63 4.22z" fill="#56595e"/><path id="Shape" d="m8 5h-7c-.55228475 0-1-.44771525-1-1s.44771525-1 1-1h7c.55228475 0 1 .44771525 1 1s-.44771525 1-1 1z" fill="#7f8284"/><path id="Shape" d="m29.4 13.35c-.901851-.1443846-1.7911736-.358357-2.66-.64-2.1979917-.5430087-3.7416563-2.5159277-3.74-4.78 0-.77708432-.3086955-1.52234128-.8581771-2.07182287s-1.2947386-.85817713-2.0718229-.85817713h-4.07c-.5522847 0-1-.44771525-1-1s.4477153-1 1-1h4.07c2.7227638 0 4.93 2.20723618 4.93 4.93-.0023695 1.34496466.9142512 2.5175786 2.22 2.84l2.42.61c.4892104.1225975.810566.5903014.7495747 1.090938-.0609912.5006367-.4852389.8775057-.9895747.879062z" fill="#7f8c8d"/><path id="Shape" d="m59 46.8c0 7.7-7.5 11.2-15 11.2s-15-3.5-15-11.2c0-4.51.7-7.1 1.28-8.47.0830084-.2015834.2870568-.3261485.504293-.3078549.2172363.0182936.3975795.1752285.445707.3878549.33 1.45 1.26 3.49 3.91 3.49 4.09 0 2.72-4.9 1.36-7.7-1.15-2.35-2.78-6.69 1.21-10.1 1.89-1.61 4.54-3.59 5.87-5.85.084537-.1527916.245381-.247621.42-.247621s.335463.0948294.42.247621c1.33 2.26 4 4.24 5.87 5.85 4 3.41 2.36 7.75 1.21 10.1-1.36 2.8-2.73 7.7 1.36 7.7 2.65 0 3.58-2 3.91-3.49.0481275-.2126264.2284707-.3695613.445707-.3878549.2172362-.0182936.4212846.1062715.504293.3078549.58 1.37 1.28 3.96 1.28 8.47z" fill="#f29c1f"/><path id="Shape" d="m20 15h-16c1.10538459-1.4800497 2.60133522-2.6227898 4.32-3.3.40383765-.1363872.67683433-.513765.68-.94v-4.12c.73.83 1.8-.64 3-.64s2.27 1.47 3 .64v4.12c.0043596.4173584.2674759.7881132.66.93 1.7256127.6795402 3.2282575 1.8255665 4.34 3.31z" fill="#c03a2b"/><circle id="Oval" cx="12" cy="4" fill="#bdc3c7" r="4"/><rect id="Rectangle-path" fill="#bdc3c7" height="19" rx="1" width="12" x="6" y="21"/><path id="Shape" d="m36.48 16.72-6.64-2.26c-.4795944-.1657497-.7590227-.6644218-.65-1.16l.47-2.16c.1091955-.4968582.5740062-.8325548 1.08-.78l7 .74c.2828385.0302841.539395.1795886.7054526.4105423.1660577.2309538.2258997.5216976.1645474.7994577l-.83 3.69c-.0638835.2760558-.2418801.5120507-.4897533.6493343-.2478732.1372837-.5423503.1629665-.8102467.0706657z" fill="#56595e"/><path id="Shape" d="m18 45h-12c-.55228475 0-1-.4477153-1-1s.44771525-1 1-1h12c.5522847 0 1 .4477153 1 1s-.4477153 1-1 1z" fill="#d1d4d1"/><path id="Shape" d="m44 58c-4.41 0-7-6.14-5.65-9.85.0965351-.2647331.300282-.4764513.5611173-.5830701.2608353-.1066189.5545482-.0982419.8088827.0230701 1.0302903.4698888 2.2373751.3196089 3.1209994-.3885589.8836244-.7081679 1.2932058-1.8535415 1.0590006-2.9614411-.0841218-.3532788.0298935-.7243956.2978542-.9695069.2679606-.2451112.6477433-.3256857.9921458-.2104931 7.87 2.8 5.06 14.94-1.19 14.94z" fill="#f0c419"/></g></svg>