<svg height="512" viewBox="0 0 58 58" width="512" xmlns="http://www.w3.org/2000/svg"><g id="Page-1" fill="none" fill-rule="evenodd"><g id="024---Profile-UI-" fill-rule="nonzero" transform="translate(-1)"><path id="Rectangle-path" d="m1 6h58v28h-58z" fill="#ecf0f1"/><path id="Shape" d="m59 32v23.81c.0508708 1.156458-.8436841 2.1359956-2 2.19h-54c-1.15355495-.0598692-2.04478017-1.0357608-2-2.19v-23.81z" fill="#3b97d3"/><path id="Shape" d="m59 2.19v5.81h-58v-5.81c-.04478017-1.15423917.84644505-2.13013079 2-2.19h54c1.1535549.05986921 2.0447802 1.03576083 2 2.19z" fill="#547580"/><circle id="Oval" cx="5" cy="4" fill="#e64c3c" r="1"/><circle id="Oval" cx="9" cy="4" fill="#f0c419" r="1"/><circle id="Oval" cx="13" cy="4" fill="#24ae5f" r="1"/><path id="Shape" d="m55 5h-7c-.5522847 0-1-.44771525-1-1s.4477153-1 1-1h7c.5522847 0 1 .44771525 1 1s-.4477153 1-1 1z" fill="#ecf0f1"/><path id="Shape" d="m20 25c.0001764.4737979-.0671672.9452034-.2 1.4-2.8444444 2.1333333-6.7555556 2.1333333-9.6 0-.54779778-1.8781638.0501415-3.903283 1.5302464-5.1826857 1.4801048-1.2794027 3.5704317-1.5780208 5.3495651-.7642236s2.9201885 2.5904887 2.9201885 4.5469093z" fill="#f0c419"/><path id="Shape" d="m15 20c-1.5737865 0-3.0557281.7409708-4 2s-1.24066022 2.8891649-.8 4.4c-2.75475461-2.066066-3.87837876-5.663085-2.78946638-8.9298221 1.08891237-3.2667371 4.14602308-5.4701779 7.58946638-5.4701779-2.209139 0-4 1.790861-4 4s1.790861 4 4 4z" fill="#285680"/><path id="Shape" d="m23 20c.0012606 2.5183558-1.184559 4.889995-3.2 6.4.4406602-1.5108351.1442719-3.1409708-.8-4.4s-2.4262135-2-4-2c2.209139 0 4-1.790861 4-4s-1.790861-4-4-4c4.418278 0 8 3.581722 8 8z" fill="#285680"/><circle id="Oval" cx="15" cy="16" fill="#fdd7ad" r="4"/><path id="Shape" d="m45 14h-18c-.5522847 0-1-.4477153-1-1s.4477153-1 1-1h18c.5522847 0 1 .4477153 1 1s-.4477153 1-1 1z" fill="#464f5d"/><path id="Shape" d="m53 14h-4c-.5522847 0-1-.4477153-1-1s.4477153-1 1-1h4c.5522847 0 1 .4477153 1 1s-.4477153 1-1 1z" fill="#464f5d"/><path id="Shape" d="m31 18h-4c-.5522847 0-1-.4477153-1-1s.4477153-1 1-1h4c.5522847 0 1 .4477153 1 1s-.4477153 1-1 1z" fill="#464f5d"/><path id="Shape" d="m53 18h-18c-.5522847 0-1-.4477153-1-1s.4477153-1 1-1h18c.5522847 0 1 .4477153 1 1s-.4477153 1-1 1z" fill="#464f5d"/><rect id="Rectangle-path" fill="#f0c419" height="4" rx="1" width="8" x="30" y="23"/><rect id="Rectangle-path" fill="#ff5364" height="4" rx="1" width="8" x="42" y="23"/><rect id="Rectangle-path" fill="#285680" height="9" rx="1" width="12" x="7" y="36"/><rect id="Rectangle-path" fill="#285680" height="9" rx="1" width="12" x="24" y="36"/><rect id="Rectangle-path" fill="#285680" height="9" rx="1" width="12" x="41" y="36"/><g fill="#fff"><path id="Shape" d="m18 50h-10c-.55228475 0-1-.4477153-1-1s.44771525-1 1-1h10c.5522847 0 1 .4477153 1 1s-.4477153 1-1 1z"/><path id="Shape" d="m18 54h-10c-.55228475 0-1-.4477153-1-1s.44771525-1 1-1h10c.5522847 0 1 .4477153 1 1s-.4477153 1-1 1z"/><path id="Shape" d="m35 50h-10c-.5522847 0-1-.4477153-1-1s.4477153-1 1-1h10c.5522847 0 1 .4477153 1 1s-.4477153 1-1 1z"/><path id="Shape" d="m35 54h-10c-.5522847 0-1-.4477153-1-1s.4477153-1 1-1h10c.5522847 0 1 .4477153 1 1s-.4477153 1-1 1z"/><path id="Shape" d="m52 50h-10c-.5522847 0-1-.4477153-1-1s.4477153-1 1-1h10c.5522847 0 1 .4477153 1 1s-.4477153 1-1 1z"/><path id="Shape" d="m52 54h-10c-.5522847 0-1-.4477153-1-1s.4477153-1 1-1h10c.5522847 0 1 .4477153 1 1s-.4477153 1-1 1z"/></g></g></g></svg>